<svg width="48" height="44" viewBox="0 0 48 44" fill="none" xmlns="http://www.w3.org/2000/svg">
<path fill-rule="evenodd" clip-rule="evenodd" d="M45.7407 10.7955C46.9714 14.5243 44.0729 17.8558 38.6471 18.0464C35.1845 18.1679 31.3828 17.1679 27.5977 16.0979C23.7241 15.003 20.3635 13.7881 16.4528 12.7365C8.40499 10.5725 7.50532 12.0825 5.57082 11.9849C11.6984 -0.897273 27.3952 10.3048 34.6318 11.3601C39.2415 12.0321 41.0381 8.20539 37.0336 4.68906C30.8482 -0.742106 22.0551 -0.532615 16.8589 0.932623C5.8167 4.04648 4.01435 11.737 1.15332 17.0971L3.07817 16.4122C10.8575 12.2488 20.0286 16.9833 27.8888 19.2748C43.8596 23.9304 50.7263 17.4287 45.741 10.7949L45.7407 10.7955Z" fill="url(#paint0_linear_61_11)"/>
<path fill-rule="evenodd" clip-rule="evenodd" d="M2.29751 32.7485C1.06687 29.0197 3.96531 25.6882 9.39109 25.4977C12.8537 25.3761 16.6554 26.3761 20.4406 27.4461C24.3141 28.541 27.6747 29.7559 31.5854 30.8076C39.6332 32.9715 40.5329 31.4616 42.4674 31.5591C36.3402 44.4413 20.643 33.2392 13.4064 32.184C8.79674 31.512 7.00011 35.3386 11.0046 38.855C17.19 44.2861 25.9828 44.0767 31.1793 42.6114C42.2215 39.4976 44.0239 31.807 46.8849 26.447L44.9601 27.1319C37.1807 31.2953 28.0096 26.5607 20.1497 24.2692C4.17891 19.6136 -2.68779 26.1153 2.29751 32.7491V32.7485Z" fill="url(#paint1_linear_61_11)"/>
<defs>
<linearGradient id="paint0_linear_61_11" x1="38.7781" y1="26.7757" x2="10.4214" y2="2.79747" gradientUnits="userSpaceOnUse">
<stop stop-color="#196235"/>
<stop offset="1" stop-color="#70BF43"/>
</linearGradient>
<linearGradient id="paint1_linear_61_11" x1="9.25985" y1="16.7684" x2="37.6168" y2="40.7466" gradientUnits="userSpaceOnUse">
<stop stop-color="#0A6DBF"/>
<stop offset="1" stop-color="#1484C6"/>
</linearGradient>
</defs>
</svg>
